<?xml version="1.0" encoding="UTF-8" standalone="no"?>
<!-- Created with Inkscape (http://www.inkscape.org/) -->

<svg
   xmlns:dc="http://purl.org/dc/elements/1.1/"
   xmlns:cc="http://creativecommons.org/ns#"
   xmlns:rdf="http://www.w3.org/1999/02/22-rdf-syntax-ns#"
   xmlns:svg="http://www.w3.org/2000/svg"
   xmlns="http://www.w3.org/2000/svg"
   xmlns:xlink="http://www.w3.org/1999/xlink"
   xmlns:sodipodi="http://sodipodi.sourceforge.net/DTD/sodipodi-0.dtd"
   xmlns:inkscape="http://www.inkscape.org/namespaces/inkscape"
   width="256"
   height="256"
   id="svg2"
   version="1.1"
   inkscape:version="0.48.3.1 r9886"
   sodipodi:docname="EnergyIcon.svg"
   inkscape:export-filename="/home/sergey/PROGRAMMING/Qt/Energy/Energy/EnergyIcon.png"
   inkscape:export-xdpi="90"
   inkscape:export-ydpi="90">
  <defs
     id="defs4">
    <linearGradient
       inkscape:collect="always"
       id="linearGradient3970">
      <stop
         style="stop-color:#ffffff;stop-opacity:1;"
         offset="0"
         id="stop3972" />
      <stop
         style="stop-color:#ffffff;stop-opacity:0;"
         offset="1"
         id="stop3974" />
    </linearGradient>
    <linearGradient
       id="linearGradient3175">
      <stop
         style="stop-color:#000000;stop-opacity:1;"
         offset="0"
         id="stop3177" />
      <stop
         style="stop-color:#000000;stop-opacity:0;"
         offset="1"
         id="stop3179" />
    </linearGradient>
    <radialGradient
       inkscape:collect="always"
       xlink:href="#linearGradient3970"
       id="radialGradient3976"
       cx="96.569534"
       cy="57.259583"
       fx="96.569534"
       fy="57.259583"
       r="122.35938"
       gradientTransform="matrix(0.24697604,1.1850786,-1.4781178,0.30804684,128.4663,-117.50757)"
       gradientUnits="userSpaceOnUse" />
  </defs>
  <sodipodi:namedview
     id="base"
     pagecolor="#ffffff"
     bordercolor="#666666"
     borderopacity="1.0"
     inkscape:pageopacity="0.0"
     inkscape:pageshadow="2"
     inkscape:zoom="0.98994949"
     inkscape:cx="235.38535"
     inkscape:cy="109.13532"
     inkscape:document-units="px"
     inkscape:current-layer="layer1"
     showgrid="false"
     inkscape:snap-bbox="true"
     inkscape:bbox-paths="true"
     inkscape:bbox-nodes="true"
     inkscape:snap-bbox-edge-midpoints="true"
     inkscape:snap-bbox-midpoints="true"
     inkscape:object-paths="true"
     inkscape:snap-intersection-paths="true"
     inkscape:object-nodes="true"
     inkscape:snap-smooth-nodes="true"
     inkscape:snap-midpoints="true"
     inkscape:snap-object-midpoints="true"
     inkscape:snap-center="true"
     inkscape:snap-page="true"
     inkscape:snap-global="false"
     inkscape:window-width="1317"
     inkscape:window-height="744"
     inkscape:window-x="49"
     inkscape:window-y="24"
     inkscape:window-maximized="1" />
  <metadata
     id="metadata7">
    <rdf:RDF>
      <cc:Work
         rdf:about="">
        <dc:format>image/svg+xml</dc:format>
        <dc:type
           rdf:resource="http://purl.org/dc/dcmitype/StillImage" />
        <dc:title></dc:title>
      </cc:Work>
    </rdf:RDF>
  </metadata>
  <g
     inkscape:label="Layer 1"
     inkscape:groupmode="layer"
     id="layer1"
     transform="translate(0,-796.36218)">
    <path
       sodipodi:type="arc"
       style="fill:#0000ff"
       id="path3116"
       sodipodi:cx="30.304577"
       sodipodi:cy="250.94923"
       sodipodi:rx="176.7767"
       sodipodi:ry="176.7767"
       d="m 207.08128,250.94923 a 176.7767,176.7767 0 1 1 -353.55341,0 176.7767,176.7767 0 1 1 353.55341,0 z"
       transform="matrix(0.72407731,0,0,0.72407731,106.05714,742.65554)" />
    <path
       style="fill:#00b700;fill-opacity:1"
       d="m 128,796.36218 c -70.69245,0 -128,57.30756 -128,128 0,70.69245 57.30755,128.00002 128,128.00002 70.69245,0 128,-57.30757 128,-128.00002 0,-70.69244 -57.30755,-128 -128,-128 z m 0,21.40625 c 58.85759,0 106.5625,47.73616 106.5625,106.59375 0,58.85759 -47.70491,106.56252 -106.5625,106.56252 -58.85759,0 -106.59375,-47.70493 -106.59375,-106.56252 0,-58.85759 47.73616,-106.59375 106.59375,-106.59375 z"
       id="path3164"
       inkscape:connector-curvature="0" />
    <g
       id="g3111"
       transform="matrix(0.72407731,0,0,0.72407731,-477.74239,241.08418)">
      <path
         inkscape:connector-curvature="0"
         id="path3008"
         d="m 774.78571,836.50502 -52.85714,221.42858 185.71429,-7.8572 13.57143,-46.4285 -122.85714,5.7143 8.57142,-43.57146 117.85715,-3.57143 12.14285,-46.42857 -119.99999,5.71429 9.28571,-45 117.14286,-1.42857 7.85714,-36.42857 z"
         style="fill:#ff0000;stroke:#000000;stroke-width:1px;stroke-linecap:butt;stroke-linejoin:miter;stroke-opacity:1" />
      <path
         sodipodi:nodetypes="ccccccccccccc"
         inkscape:connector-curvature="0"
         id="path2985"
         d="m 849.5894,826.55576 -46.68226,96.77891 49.1649,-10.71429 -46.34249,85.23708 -36.41196,-0.8275 38.89459,67.03124 71.16883,-65.37614 -39.19058,0.4878 83.05044,-129.58481 -62.89339,9.93053 39.72214,-56.27302 -35.7324,23.5805 z"
         style="fill:#ffff00;stroke:#000000;stroke-width:1.1585623px;stroke-linecap:butt;stroke-linejoin:miter;stroke-opacity:1" />
      <path
         inkscape:connector-curvature="0"
         id="path3010"
         d="m 806.92862,965.79074 0,0 117.8571,-3.57143 12.1429,-46.42857 -120,5.71429"
         style="fill:#ff0000;stroke:#000000;stroke-width:1px;stroke-linecap:butt;stroke-linejoin:miter;stroke-opacity:1" />
    </g>
    <path
       style="fill:url(#radialGradient3976);fill-opacity:1"
       d="M 128 0 C 57.307552 1.8947806e-14 0 57.30755 0 128 C 0 131.69595 0.1617352 135.35225 0.46875 138.96875 C 23.136198 135.94157 44.697819 123.51458 66.71875 119.6875 C 103.61972 113.27437 112.03754 122.45927 141.75 118.65625 C 171.46246 114.85323 174.22381 100.50454 213.40625 84.40625 C 222.46342 80.685069 233.30813 77.920393 244.71875 75.34375 C 224.64496 30.906839 179.92925 -2.6097522e-14 128 0 z "
       transform="translate(0,796.36218)"
       id="path3956" />
  </g>
</svg>
